# AST/ASF file generated using VICON BodyLanguage
# -----------------------------------------------
:version 1.10
:name VICON
:units
  mass 1.0
  length 0.45
  angle deg
:documentation
   .ast/.asf automatically generated from VICON data using
   VICON BodyBuilder and BodyLanguage model FoxedUp or BRILLIANT.MOD
:root
   order TX TY TZ RX RY RZ
   axis XYZ
   position 0 0 0  
   orientation 0 0 0 
:bonedata
  begin
     id 1 
     name lhipjoint
     direction 0.561001 -0.76473 0.316963 
     length 2.4722 
     axis 0 0 0  XYZ
  end
  begin
     id 2 
     name lfemur
     direction 0.34202 -0.939693 0  
     length 7.59403  
     axis 0 0 20  XYZ
    dof rx ry rz
    limits (-160.0 20.0)
           (-70.0 70.0)
           (-60.0 70.0)
  end
  begin
     id 3 
     name ltibia
     direction 0.34202 -0.939693 0   
     length 7.89655   
     axis 0 0 20   XYZ
    dof rx
    limits (-10.0 170.0)
  end
  begin
     id 4 
     name lfoot
     direction 0.061296 -0.168409 0.98381   
     length 2.73287   
     axis -90 7.62852e-016 20   XYZ
    dof rx rz
    limits (-45.0 90.0)
           (-70.0 20.0)
  end
  begin
     id 5 
     name ltoes
     direction 1.53547e-011 -4.21984e-011 1   
     length 1.37057   
     axis -90 7.62852e-016 20   XYZ
    dof rx
    limits (-90.0 20.0)
  end
  begin
     id 6 
     name rhipjoint
     direction -0.559611 -0.765599 0.317323   
     length 2.46939  
     axis 0 0 0  XYZ 
  end
  begin
     id 7 
     name rfemur
     direction -0.34202 -0.939693 0   
     length 7.53712   
     axis 0 0 -20   XYZ
    dof rx ry rz
    limits (-160.0 20.0)
           (-70.0 70.0)
           (-70.0 60.0)
  end
  begin
     id 8 
     name rtibia
     direction -0.34202 -0.939693 0   
     length 8.12549   
     axis 0 0 -20   XYZ
    dof rx
    limits (-10.0 170.0)
 end
 begin
     id 9 
     name rfoot
     direction -0.066984 -0.184037 0.980634   
     length 2.67541  
     axis -90 -7.62852e-016 -20   XYZ
    dof rx rz
    limits (-45.0 90.0)
           (-20.0 70.0)
  end
  begin
     id 10 
     name rtoes
     direction -1.53549e-011 -4.21786e-011 1   
     length 1.34085   
     axis -90 -7.62852e-016 -20   XYZ
    dof rx
    limits (-90.0 20.0)
  end
  begin
     id 11 
     name lowerback
     direction -0.0522728 0.992594 -0.109658   
     length 2.05633   
     axis 0 0 0   XYZ
    dof rx ry rz
    limits (-20.0 45.0)
           (-30.0 30.0)
           (-30.0 30.0)
  end
  begin
     id 12 
     name upperback
     direction 0.00589338 0.999977 0.00335704   
     length 2.05845   
     axis 0 0 0   XYZ
    dof rx ry rz
    limits (-20.0 45.0)
           (-30.0 30.0)
           (-30.0 30.0)
  end
  begin
     id 13 
     name thorax
     direction 0.0292928 0.998059 0.0549487   
     length 2.09281   
     axis 0 0 0   XYZ
    dof rx ry rz
    limits (-20.0 45.0)
           (-30.0 30.0)
           (-30.0 30.0)
  end
  begin
     id 14 
     name lowerneck
     direction 0.0356368 0.980775 0.191858   
     length 1.84767   
     axis 0 0 0   XYZ
    dof rx ry rz
    limits (-20.0 45.0)
           (-30.0 30.0)
           (-30.0 30.0)
  end
  begin
     id 15 
     name upperneck
     direction -0.0227605 0.98931 -0.14404   
     length 1.89582   
     axis 0 0 0   XYZ
    dof rx ry rz
    limits (-20.0 45.0)
           (-30.0 30.0)
           (-30.0 30.0)
  end
  begin
     id 16
     name head
     direction -0.00932985 0.997511 -0.0698904  
     length 1.90213  
     axis 0 0 0   XYZ
    dof rx ry rz
    limits (-20.0 45.0)
           (-30.0 30.0)
           (-30.0 30.0)
  end
  begin
     id 17 
     name lclavicle
     direction 0.873442 0.479511 0.0846686  
     length 3.41193  
     axis 0 0 0   XYZ
    dof ry rz
    limits (-20.0 10.0)
           (0.0 20.0)
  end
  begin
     id 18 
     name lhumerus
     direction 1 -4.4897e-011 -5.62117e-018   
     length 5.59864   
     axis 180 -30 -90   XYZ
    dof rx ry rz
    limits (-60.0 90.0)
           (-90.0 90.0)
           (-90.0 90.0)
  end
  begin
     id 19
     name lradius
     direction 1 -4.48966e-011 -6.26295e-027   
     length 3.59542   
     axis 180 -30 -90   XYZ
    dof rx
    limits (-10.0 170.0)
  end
  begin
     id 20
     name lwrist
     direction 1 -4.48947e-011 -1.74096e-026   
     length 1.79771   
     axis 1.04567e-014 90 90   XYZ
    dof ry
    limits (-180.0 0.0)
 end
  begin
     id 21 
     name lhand
     direction 1 -4.49085e-011 -3.48469e-026   
     length 0.572014   
     axis 2.22196e-014 90 90   XYZ
    dof rx rz
    limits (-90.0 90.0)
           (-45.0 45.0)
  end
  begin
     id 22 
     name lfingers
     direction 1 -4.48884e-011 -6.96135e-026   
     length 0.461173   
     axis 4.44383e-014 90 90   XYZ
    dof rx
    limits (0.0 90.0)
  end
  begin
     id 23
     name lthumb
     direction 0.707107 -6.34976e-011 0.707107   
     length 0.662154   
     axis -90 45 -5.4397e-014   XYZ
    dof rx rz
    limits (-45.0 45.0)
           (-45.0 45.0)
  end
  begin
     id 24 
     name rclavicle
     direction -0.890242 0.443271 0.104786   
     length 3.46753  
     axis 0 0 0   XYZ 
    dof ry rz
    limits (-10.0 20.0)
           (-20.0 0.0)
  end
  begin
     id 25 
     name rhumerus
     direction -1 -4.48963e-011 -5.41723e-018  
     length 5.8094   
     axis 180 30 90   XYZ
    dof rx ry rz
    limits (-90.0 60.0)
           (-90.0 90.0)
           (-90.0 90.0)
  end
  begin
     id 26 
     name rradius
     direction -1 -4.48958e-011 -6.51059e-027   
     length 3.66953   
     axis 180 30 90   XYZ
    dof rx
    limits (-10.0 170.0)
  end
  begin
     id 27 
     name rwrist
     direction -1 -4.48975e-011 -1.74124e-026   
     length 1.83476   
     axis 1.04567e-014 -90 -90   XYZ
    dof ry
    limits (-180.0 0.0)
  end
  begin
     id 28
     name rhand
     direction -1 -4.49013e-011 -3.48326e-026   
     length 0.57843   
     axis 2.22196e-014 -90 -90   XYZ
    dof rx rz
    limits (-90.0 90.0)
           (-45.0 45.0)
  end
  begin
     id 29
     name rfingers
     direction -1 -4.49023e-011 -6.9669e-026   
     length 0.466345   
     axis 4.44383e-014 -90 -90   XYZ
    dof rx
    limits (0.0 90.0)
  end
  begin
     id 30
     name rthumb
     direction -0.707107 -6.34926e-011 0.707107   
     length 0.669581   
     axis -90 -45 5.4397e-014   XYZ
    dof rx rz
    limits (-45.0 45.0)
           (-45.0 45.0)
  end
:hierarchy
  begin
    root lhipjoint rhipjoint lowerback
    lhipjoint lfemur
    lfemur ltibia
    ltibia lfoot
    lfoot ltoes
    rhipjoint rfemur
    rfemur rtibia
    rtibia rfoot
    rfoot rtoes
    lowerback upperback
    upperback thorax
    thorax lowerneck lclavicle rclavicle
    lowerneck upperneck
    upperneck head
    lclavicle lhumerus
    lhumerus lradius
    lradius lwrist
    lwrist lhand lthumb
    lhand lfingers
    rclavicle rhumerus
    rhumerus rradius
    rradius rwrist
    rwrist rhand rthumb
    rhand rfingers
  end

#!OML:ASF H:\SkateBoarding\Project 1\Capture day 1\Session 1\Skater.ASF
:FULLY-SPECIFIED
:DEGREES
205
root -7.36308 18.8609 39.181 -171.549 70.1744 -177.163
lowerback 7.06505 -3.94895 -2.32719
upperback -1.64149 -5.43587 0.927073
thorax -5.35658 -2.59591 2.88136
lowerneck -13.3897 -9.79424 -6.17884
upperneck 42.2426 -11.815 1.5425
head 18.7748 -4.83195 -0.266415
rclavicle -2.58172e-014 -4.17448e-015
rhumerus -37.0912 -4.40312 -59.8394
rradius 34.0989
rwrist -10.8207
rhand -37.7157 -12.4263
rfingers 7.12502
rthumb -10.765 -42.1304
lclavicle -2.58172e-014 -4.17448e-015
lhumerus -33.1573 -32.7178 87.9464
lradius 81.6436
lwrist 43.9388
lhand -26.3713 23.1699
lfingers 7.12502
lthumb 0.187153 53.1496
rfemur -14.3063 5.27586 14.0141
rtibia 44.0193
rfoot -34.3645 20.7982
rtoes -1.90706
lfemur -6.6576 -5.27899 -14.6469
ltibia 43.6253
lfoot -47.8265 3.14075
ltoes -23.1335
206
root -7.22045 18.8506 39.5054 -172.061 69.8366 -177.248
lowerback 7.34193 -3.98651 -2.4646
upperback -1.54268 -5.49897 1.00824
thorax -5.38517 -2.62117 3.06602
lowerneck -13.2835 -9.80823 -6.44146
upperneck 42.2654 -11.8129 1.70785
head 18.8088 -4.84571 -0.139576
rclavicle -3.35449e-015 3.77691e-015
rhumerus -37.8726 -5.13799 -59.5381
rradius 33.3469
rwrist -10.6056
rhand -37.5394 -12.7485
rfingers 7.12502
rthumb -10.595 -42.4614
lclavicle -3.35449e-015 3.77691e-015
lhumerus -31.9093 -33.5471 88.1977
lradius 80.8331
lwrist 42.2874
lhand -25.4427 22.73
lfingers 7.12502
lthumb 1.08397 52.707
rfemur -14.3951 4.43147 14.5213
rtibia 44.8598
rfoot -34.3655 20.7184
rtoes -2.22397
lfemur -6.59253 -5.47397 -14.0343
ltibia 43.9149
lfoot -47.3817 2.66841
ltoes -22.9366
207
root -7.0982 18.8396 39.8025 -172.525 69.3118 -177.486
lowerback 7.54775 -4.06746 -2.05205
upperback -1.51752 -5.57752 0.893242
thorax -5.5204 -2.67144 2.74437
lowerneck -13.1996 -9.86029 -6.36885
upperneck 42.3195 -11.9049 1.70246
head 18.8169 -4.8653 -0.167106
rclavicle 1.69464e-014 -2.5842e-015
rhumerus -38.7017 -6.45308 -59.123
rradius 32.3868
rwrist -9.78199
rhand -37.2596 -12.8567
rfingers 7.12502
rthumb -10.3251 -42.5832
lclavicle 1.69464e-014 -2.5842e-015
lhumerus -30.8934 -34.5099 88.534
lradius 80.188
lwrist 41.0511
lhand -25.2524 22.1878
lfingers 7.12502
lthumb 1.26777 52.1638
rfemur -14.7359 3.02104 14.8042
rtibia 45.6522
rfoot -34.3101 20.0804
rtoes -3.82412
lfemur -6.83651 -5.92527 -13.5769
ltibia 44.0987
lfoot -46.9091 2.59242
ltoes -23.0613
208
root -6.95488 18.8311 40.1159 -173.014 69.1931 -177.655
lowerback 7.6746 -4.00973 -2.09144
upperback -1.43635 -5.50785 0.847901
thorax -5.51169 -2.63701 2.71778
lowerneck -13.1558 -9.88539 -6.3342
upperneck 42.4459 -11.9324 1.68465
head 18.8804 -4.86209 -0.184027
rclavicle -1.3244e-014 7.15625e-015
rhumerus -39.5443 -7.4752 -58.8357
rradius 31.5004
rwrist -8.95441
rhand -36.8183 -13.0554
rfingers 7.12502
rthumb -9.89931 -42.8027
lclavicle -1.3244e-014 7.15625e-015
lhumerus -29.9252 -35.1913 88.8454
lradius 79.5043
lwrist 39.8816
lhand -25.4315 21.7026
lfingers 7.12502
lthumb 1.0948 51.6796
rfemur -14.9202 2.1209 15.1521
rtibia 46.3697
rfoot -34.0585 19.8968
rtoes -4.42309
lfemur -6.73006 -5.91438 -13.0561
ltibia 44.1631
lfoot -46.447 2.12668
ltoes -22.8551
209
root -6.80519 18.8231 40.4202 -174.254 69.2145 -178.657
lowerback 7.62909 -3.89903 -2.36991
upperback -1.33485 -5.39367 0.68023
thorax -5.37665 -2.57841 2.67583
lowerneck -13.1397 -9.91203 -6.12317
upperneck 42.592 -11.9503 1.50897
head 18.9249 -4.84796 -0.30323
rclavicle 3.43649e-014 -2.5842e-015
rhumerus -40.3668 -8.6566 -58.5066
rradius 30.534
rwrist -7.78769
rhand -36.3066 -13.1459
rfingers 7.12502
rthumb -9.4056 -42.9161
lclavicle 3.43649e-014 -2.5842e-015
lhumerus -29.1559 -35.8061 89.1919
lradius 79.0005
lwrist 38.926
lhand -24.9656 21.4526
lfingers 7.12502
lthumb 1.54481 51.4267
rfemur -15.0389 1.29812 15.0872
rtibia 47.0247
rfoot -33.6389 20.1556
rtoes -4.69576
lfemur -6.51105 -5.82568 -12.9301
ltibia 44.1077
lfoot -46.0463 1.71997
ltoes -22.6755
210
root -6.66162 18.816 40.7317 -174.822 69.3606 -178.933
lowerback 7.70782 -3.77526 -2.47933
upperback -1.25535 -5.24181 0.632844
thorax -5.34132 -2.50196 2.67267
lowerneck -13.0956 -9.91638 -6.0521
upperneck 42.6948 -11.9027 1.36283
head 18.95 -4.82982 -0.371017
rclavicle -1.28713e-014 -7.15625e-015
rhumerus -41.0925 -9.75362 -58.1541
rradius 29.5653
rwrist -6.50194
rhand -35.7947 -13.219
rfingers 7.12502
rthumb -8.91173 -43.0108
lclavicle -1.28713e-014 -7.15625e-015
lhumerus -28.532 -36.1628 89.5576
lradius 78.5861
lwrist 38.1758
lhand -24.7271 21.3491
lfingers 7.12502
lthumb 1.77514 51.3215
rfemur -15.1953 0.667397 15.3626
rtibia 47.6056
rfoot -33.2865 20.1966
rtoes -4.82678
lfemur -6.24838 -5.53686 -12.4703
ltibia 43.9294
lfoot -45.5644 1.44511
ltoes -22.8146
211
root -6.5156 18.8134 41.0406 -175.73 69.5746 -179.566
lowerback 7.78975 -3.63328 -2.71742
upperback -1.16663 -5.08247 0.500304
thorax -5.29572 -2.41939 2.65135
lowerneck -13.1929 -9.88257 -5.8664
upperneck 42.836 -11.8384 1.22889
head 19.0262 -4.78085 -0.457104
rclavicle 1.76421e-015 2.98177e-015
rhumerus -41.8522 -11.0736 -57.7875
rradius 28.6298
rwrist -4.95341
rhand -35.0792 -13.03
rfingers 7.12502
rthumb -8.22119 -42.8501
lclavicle 1.76421e-015 2.98177e-015
lhumerus -28.0157 -36.4713 89.8093
lradius 78.2982
lwrist 37.7781
lhand -24.334 21.2911
lfingers 7.12502
lthumb 2.15478 51.2599
rfemur -15.3224 0.174232 15.4599
rtibia 48.143
rfoot -33.1069 20.0883
rtoes -5.51161
lfemur -5.88329 -5.22329 -12.1802
ltibia 43.6245
lfoot -45.0761 0.927221
ltoes -22.4602
212
root -6.37179 18.8085 41.3498 -176.519 69.8605 -180.088
lowerback 7.89252 -3.50163 -2.93824
upperback -1.09731 -4.93493 0.394233
thorax -5.28117 -2.34188 2.65168
lowerneck -13.1878 -9.8204 -5.68068
upperneck 42.9226 -11.7269 1.0833
head 19.0359 -4.7204 -0.532301
rclavicle 3.74461e-014 -5.56597e-015
rhumerus -42.5827 -12.1592 -57.5535
rradius 27.8099
rwrist -3.35
rhand -34.4326 -13.1035
rfingers 7.12502
rthumb -7.59717 -42.9471
lclavicle 3.74461e-014 -5.56597e-015
lhumerus -27.635 -36.5949 90.0842
lradius 78.0945
lwrist 37.6971
lhand -24.0652 21.2632
lfingers 7.12502
lthumb 2.41442 51.2293
rfemur -15.4504 -0.212677 15.6142
rtibia 48.6062
rfoot -32.8445 20.0832
rtoes -5.78178
lfemur -5.51669 -4.76225 -11.8349
ltibia 43.2837
lfoot -44.5373 0.467571
ltoes -22.3159
213
root -6.22498 18.8083 41.6542 -177.68 70.192 -180.961
lowerback 8.01901 -3.36873 -3.22302
upperback -1.02437 -4.79559 0.231809
thorax -5.27603 -2.2669 2.63131
lowerneck -13.08 -9.77543 -6.04669
upperneck 43.0178 -11.6314 1.33641
head 19.1336 -4.69872 -0.328416
rclavicle -8.2595e-014 -1.13307e-014
rhumerus -43.3573 -13.1117 -57.419
rradius 27.1802
rwrist -1.94624
rhand -33.8129 -13.1556
rfingers 7.12502
rthumb -6.99894 -43.0199
lclavicle -8.2595e-014 -1.13307e-014
lhumerus -27.3802 -36.5462 90.3757
lradius 78.0066
lwrist 37.8516
lhand -23.9955 21.3157
lfingers 7.12502
lthumb 2.48169 51.281
rfemur -15.4842 -0.498572 15.6129
rtibia 48.9929
rfoot -32.709 19.9137
rtoes -6.43535
lfemur -5.02028 -4.27101 -11.6712
ltibia 42.8564
lfoot -44.0375 0.0504158
ltoes -22.1142
